<svg width="60" height="60" viewBox="0 0 60 60" fill="none" xmlns="http://www.w3.org/2000/svg">
<path d="M50 52.5H10C9.33696 52.5 8.70107 52.2366 8.23223 51.7678C7.76339 51.2989 7.5 50.663 7.5 50V10C7.5 9.33696 7.76339 8.70107 8.23223 8.23223C8.70107 7.76339 9.33696 7.5 10 7.5H50C50.663 7.5 51.2989 7.76339 51.7678 8.23223C52.2366 8.70107 52.5 9.33696 52.5 10V50C52.5 50.663 52.2366 51.2989 51.7678 51.7678C51.2989 52.2366 50.663 52.5 50 52.5ZM22.5 30C22.5 31.4834 22.9399 32.9334 23.764 34.1668C24.5881 35.4001 25.7594 36.3614 27.1299 36.9291C28.5003 37.4968 30.0083 37.6453 31.4632 37.3559C32.918 37.0665 34.2544 36.3522 35.3033 35.3033C36.3522 34.2544 37.0665 32.918 37.3559 31.4632C37.6453 30.0083 37.4968 28.5003 36.9291 27.1299C36.3614 25.7594 35.4001 24.5881 34.1668 23.764C32.9334 22.9399 31.4834 22.5 30 22.5C28.0109 22.5 26.1032 23.2902 24.6967 24.6967C23.2902 26.1032 22.5 28.0109 22.5 30Z" stroke="black" stroke-width="4" stroke-linecap="round" stroke-linejoin="round"/>
<path d="M42.375 17.5H42.625" stroke="black" stroke-width="4" stroke-linecap="round" stroke-linejoin="round"/>
</svg>
