<svg width="60" height="60" viewBox="0 0 60 60" fill="none" xmlns="http://www.w3.org/2000/svg">
<path d="M52.5 39.5C52.5061 41.3894 51.7988 43.2115 50.5196 44.602C49.2403 45.9924 47.4834 46.8489 45.6 47C41.875 47.275 36.7 47.525 30 47.525C23.3 47.525 18.125 47.275 14.4 47C12.5167 46.8489 10.7598 45.9924 9.48052 44.602C8.20128 43.2115 7.49398 41.3894 7.50004 39.5V20.5C7.49398 18.6106 8.20128 16.7885 9.48052 15.398C10.7598 14.0076 12.5167 13.1511 14.4 13C18.125 12.75 23.3 12.5 30 12.5C36.7 12.5 41.875 12.75 45.6 13.025C47.4791 13.1758 49.2324 14.0287 50.5111 15.4139C51.7897 16.799 52.4998 18.6149 52.5 20.5V39.5ZM25 22.5V37.5L37.5 30L25 22.5Z" stroke="black" stroke-width="4" stroke-linecap="round" stroke-linejoin="round"/>
</svg>
