<svg width="60" height="60" viewBox="0 0 60 60" fill="none" xmlns="http://www.w3.org/2000/svg">
<path d="M40 22.5H35C33.6739 22.5 32.4021 23.0268 31.4645 23.9645C30.5268 24.9021 30 26.1739 30 27.5V52.5" stroke="black" stroke-width="4" stroke-linecap="round" stroke-linejoin="round"/>
<path d="M22.5 35H37.5M30 7.5C25.5499 7.5 21.1998 8.8196 17.4997 11.2919C13.7996 13.7643 10.9157 17.2783 9.21272 21.3896C7.50975 25.501 7.06417 30.025 7.93234 34.3895C8.80051 38.7541 10.9434 42.7632 14.0901 45.9099C17.2368 49.0566 21.2459 51.1995 25.6105 52.0677C29.9751 52.9358 34.499 52.4903 38.6104 50.7873C42.7217 49.0843 46.2357 46.2004 48.7081 42.5003C51.1804 38.8002 52.5 34.4501 52.5 30C52.5 24.0326 50.1295 18.3097 45.9099 14.0901C41.6903 9.87053 35.9674 7.5 30 7.5Z" stroke="black" stroke-width="4" stroke-linecap="round" stroke-linejoin="round"/>
</svg>
