<svg width="40" height="40" viewBox="0 0 40 40" fill="none" xmlns="http://www.w3.org/2000/svg">
<path d="M37.5 14.6875C37.5 25.625 21.2828 34.4781 20.5922 34.8438C20.4102 34.9417 20.2067 34.9929 20 34.9929C19.7933 34.9929 19.5898 34.9417 19.4078 34.8438C18.7172 34.4781 2.5 25.625 2.5 14.6875C2.50289 12.1191 3.52447 9.65673 5.3406 7.8406C7.15673 6.02447 9.6191 5.00289 12.1875 5C15.4141 5 18.2391 6.3875 20 8.73281C21.7609 6.3875 24.5859 5 27.8125 5C30.3809 5.00289 32.8433 6.02447 34.6594 7.8406C36.4755 9.65673 37.4971 12.1191 37.5 14.6875Z" fill="#E20000"/>
</svg>
